<?xml version="1.0" encoding="utf-8"?>
<!-- Generator: Adobe Illustrator 20.1.0, SVG Export Plug-In . SVG Version: 6.00 Build 0)  -->
<svg version="1.1" id="Lager_1" xmlns="http://www.w3.org/2000/svg" xmlns:xlink="http://www.w3.org/1999/xlink" x="0px" y="0px"
	 viewBox="0 0 222.7 152.2" style="enable-background:new 0 0 222.7 152.2;" xml:space="preserve">
<style type="text/css">
	.st0{fill:#F6F6F6;}
</style>
<path class="st0" d="M212.7,108.1c-2.5-1.3-5.6-1.9-8.8-1.9c-2.6,0-5.2,0.4-7.8,0.9c-2.2,0.4-4.4,0.9-6.2-0.8
	c-0.8-0.7-1.3-1.7-1.5-2.7c-1.6-5.4,0.6-11.5,1.4-17c2-14.1,3.1-30.8-5.4-43.1c-0.8-1.1-1.6-2.1-2.5-3.1l4.1-1.9
	c1.4-0.7,2-2.4,1.4-3.8l-0.5-1.1c-0.7-1.4-2.4-2-3.8-1.4l-3.8,1.8c1.4-8.5-3.8-18.3-12.1-20.4l-4.5-1.4c0.2-0.4,0.3-0.9,0.3-1.4
	c0-2-1.7-3.7-3.7-3.7c-1.8,0-3.3,1.3-3.6,2.9l-5.1-1.5c-8.4-2.2-18.1,1.8-20.8,9.9c-0.5-0.2-1-0.4-1.6-0.6c-8.2-2.8-17.7-3-25.4,1.5
	c-9,5.2-1.6,14.3,4.8,18.3c1.4,0.9,2.9,1.7,4.5,2.3c-2.1,1.3-4.1,2.7-6.1,4.2C97.2,50.9,92,62.7,89.4,73.1c0,0.1-0.1,0.2-0.1,0.3
	c-3.1,12.6-3.7,27.9-16.5,34.8c-6.6,3.5-16.9,0.8-19-7.1c-0.8-2.8-0.5-6.2-0.4-9c0-1.5,0.1-3.5,0.2-5.4c0.3-4.4,4.5-4,7.7-4
	c8.2,0.2,16.9-5,17.1-13.9c0.1-4-1.7-8.1-4.8-10.7c-4.5-3.8-9.4-3.3-14.8-3.9c-1.4-0.2-2.7-0.6-3.7-1.6c-2.8-2.6-1.5-7.6-1.4-11
	c0.2-4.4,0.2-8.9-1.4-13.1c-2.2-5.8-7.7-10-14.1-9.9c-4.7,0-9.1,2.5-11.9,6.3c-3.3,4.5-3.4,10.2-3.2,15.5c0.2,3.7,2.1,11.2-2.4,13.2
	c-1.1,0.5-2.3,0.5-3.5,0.6C12.8,54.8,8.5,57.2,6,61C2.4,66.4,3,74.4,7.9,78.7c2.4,2.1,6.3,3,9.4,3.5c1,0.1,2,0.2,3,0.6
	c1.6,0.6,2.7,2.1,2.6,3.8c-0.4,10.9-0.1,42.6,14.2,53.3c13.5,10.1,32.5,7.3,43.6-4.9c3.5-3.8,8.9-13.6,15.3-11.3
	c4.2,1.5,7.5,6.4,11,9.1c9.1,7,20.6,11.2,32.1,11c10.8-0.2,20.3-5.3,28.2-12.4c1.1-1,2.1-2.2,3.3-3c0.9-0.5,2-0.8,2.9-0.5
	c1.3,0.4,2.1,1.7,2.4,3c0.3,1.3,0.3,2.6,0.6,4c1.4,8,10.3,10.7,17.2,8.5c10.8-3.4,22.2-12.2,24.2-23.9
	C218.8,113.8,216.5,110.2,212.7,108.1z M139.6,12.3c0.3,0,0.6,0.1,0.8,0.2c4.2,1.5,2.5,6.8-1.1,7.9c-2.1,0.6-3.7-0.9-4-2.8
	C134.8,15.1,136.7,12,139.6,12.3z M112.3,89.9c2.5-29,47.6-24.8,45.7,3.9c-0.3,5.2-2.4,10.3-6.7,14.5
	C136.4,122.9,110.6,110.7,112.3,89.9z M110,57.5l0.4-0.3c2.9-2,6.1-3.6,9.5-4.9c6.5-2.4,13.7-3.3,21-2.7c0,0,0.1,0,0.1,0
	c4,0.3,8.3,1.3,12.5,2.8c0.2,0.1,0.4,0.1,0.6,0.2c3.5,1.1,6.8,2.5,7.3,4.5c0.1,0.5,0.2,1.3-0.5,2.2c-0.6,0.8-1.7,1.2-2.8,1.1
	c0,0,0,0-0.1,0c-1.2-0.1-2.1-0.7-3.1-1.2c-0.5-0.3-0.9-0.5-1.4-0.7c-2.1-0.9-4.3-1.6-6.6-2.1c-4.6-1.1-9.3-1.5-14-1.1
	c-5.3,0.4-10.2,1.7-14.7,3.8c-2.5,1.2-4.7,2.6-6.7,4.2c-0.3,0.3-0.7,0.6-1,1c-1.4,1.5-3.4,3.6-5.5,2.5c-1.3-0.7-1.7-1.6-1.7-2.2
	C103.3,62.3,106.9,59.6,110,57.5z"/>
<ellipse transform="matrix(8.452747e-02 -0.9964 0.9964 8.452747e-02 28.0986 213.3826)" class="st0" cx="130.2" cy="91.4" rx="10.4" ry="10.4"/>
</svg>
