<?xml version="1.0" encoding="utf-8"?>
<!-- Generator: Adobe Illustrator 20.1.0, SVG Export Plug-In . SVG Version: 6.00 Build 0)  -->
<svg version="1.1" id="Lager_1" xmlns="http://www.w3.org/2000/svg" xmlns:xlink="http://www.w3.org/1999/xlink" x="0px" y="0px"
	 viewBox="0 0 222.7 152.2" style="enable-background:new 0 0 222.7 152.2;" xml:space="preserve">
<style type="text/css">
	.st0{fill:#FFFFFF;}
</style>
<g>
	<path class="st0" d="M212.7,108.1c-2.5-1.3-5.6-1.9-8.8-1.9c-2.6,0-5.2,0.4-7.8,0.9c-2.2,0.4-4.4,0.9-6.2-0.8
		c-0.8-0.7-1.3-1.7-1.5-2.7c-1.6-5.4,0.6-11.5,1.4-17c2-14.1,3.1-30.8-5.4-43.1c-0.8-1.1-1.6-2.1-2.5-3.1l4.1-1.9
		c1.4-0.7,2-2.4,1.4-3.8l-0.5-1.1c-0.7-1.4-2.4-2-3.8-1.4l-3.8,1.8c1.4-8.5-3.8-18.3-12.1-20.4l-4.5-1.4c0.2-0.4,0.3-0.9,0.3-1.4
		c0-2-1.7-3.7-3.7-3.7c-1.8,0-3.3,1.3-3.6,2.9l-5.1-1.5c-8.4-2.2-18.1,1.8-20.8,9.9c-0.5-0.2-1-0.4-1.6-0.6
		c-8.2-2.8-17.7-3-25.4,1.5c-9,5.2-1.6,14.3,4.8,18.3c1.4,0.9,2.9,1.7,4.5,2.3c-2.1,1.3-4.1,2.7-6.1,4.2
		C97.2,50.9,92,62.7,89.4,73.1c0,0.1-0.1,0.2-0.1,0.3c-3.1,12.6-3.7,27.9-16.5,34.8c-6.6,3.5-16.9,0.8-19-7.1
		c-0.8-2.8-0.5-6.2-0.4-9c0-1.5,0.1-3.5,0.2-5.4c0.3-4.4,4.5-4,7.7-4c8.2,0.2,16.9-5,17.1-13.9c0.1-4-1.7-8.1-4.8-10.7
		c-4.5-3.8-9.4-3.3-14.8-3.9c-1.4-0.2-2.7-0.6-3.7-1.6c-2.8-2.6-1.5-7.6-1.4-11c0.2-4.4,0.2-8.9-1.4-13.1c-2.2-5.8-7.7-10-14.1-9.9
		c-4.7,0-9.1,2.5-11.9,6.3c-3.3,4.5-3.4,10.2-3.2,15.5c0.2,3.7,2.1,11.2-2.4,13.2c-1.1,0.5-2.3,0.5-3.5,0.6C12.8,54.8,8.5,57.2,6,61
		C2.4,66.4,3,74.4,7.9,78.7c2.4,2.1,6.3,3,9.4,3.5c1,0.1,2,0.2,3,0.6c1.6,0.6,2.7,2.1,2.6,3.8c-0.4,10.9-0.1,42.6,14.2,53.3
		c13.5,10.1,32.5,7.3,43.6-4.9c3.5-3.8,8.9-13.6,15.3-11.3c4.2,1.5,7.5,6.4,11,9.1c9.1,7,20.6,11.2,32.1,11
		c10.8-0.2,20.3-5.3,28.2-12.4c1.1-1,2.1-2.2,3.3-3c0.9-0.5,2-0.8,2.9-0.5c1.3,0.4,2.1,1.7,2.4,3c0.3,1.3,0.3,2.6,0.6,4
		c1.4,8,10.3,10.7,17.2,8.5c10.8-3.4,22.2-12.2,24.2-23.9C218.8,113.8,216.5,110.2,212.7,108.1z M147.7,53.7h15
		c1.4,0,2.5,1.1,2.5,2.5s-1.1,2.5-2.5,2.5h-15c-1.4,0-2.5-1.1-2.5-2.5S146.3,53.7,147.7,53.7z M139.6,12.3c0.3,0,0.6,0.1,0.8,0.2
		c4.2,1.5,2.5,6.8-1.1,7.9c-2.1,0.6-3.7-0.9-4-2.8C134.8,15.1,136.7,12,139.6,12.3z M127.6,96.5c0.9-2.9,2-10.9,4.5-15
		c0.8-1.4,1.8-2.3,3-2.6c6.5-1.2,5.9,14.9,6.4,18.8C142.2,103.8,125.4,103.6,127.6,96.5z M108.6,50.7h15c1.4,0,2.5,1.1,2.5,2.5
		s-1.1,2.5-2.5,2.5h-15c-1.4,0-2.5-1.1-2.5-2.5S107.2,50.7,108.6,50.7z M103.6,71.8c1.3-15,24.5-12.8,23.6,2
		c-0.2,2.7-1.3,5.3-3.4,7.5C116,88.8,102.7,82.5,103.6,71.8z M155.7,115l-0.3,0.2c-2,1.4-4.3,2.5-6.6,3.4c-4.6,1.7-9.7,2.3-14.7,1.9
		c0,0-0.1,0-0.1,0c-2.8-0.2-5.8-0.9-8.8-2c-0.1,0-0.3-0.1-0.4-0.1c-2.4-0.8-4.7-1.7-5.2-3.1c-0.1-0.4-0.1-0.9,0.4-1.5
		c0.4-0.5,1.2-0.8,2-0.8c0,0,0,0,0,0c0.8,0.1,1.5,0.5,2.2,0.8c0.3,0.2,0.7,0.4,1,0.5c1.5,0.6,3,1.1,4.6,1.5c3.2,0.8,6.5,1,9.8,0.8
		c3.7-0.3,7.2-1.2,10.3-2.7c1.7-0.8,3.3-1.8,4.7-3c0.2-0.2,0.5-0.4,0.7-0.7c1-1.1,2.4-2.5,3.9-1.8c0.9,0.5,1.2,1.1,1.2,1.5
		C160.4,111.6,157.9,113.5,155.7,115z M169.2,77.3c-0.5,5.2-4.2,10.2-10.3,10.8c-6.9,0.7-13.6-5.5-13.1-12.5
		c0.5-8.1,8.8-12.3,16.1-9.8C167.4,67.7,169.6,72.6,169.2,77.3z"/>
	
		<ellipse transform="matrix(8.452747e-02 -0.9964 0.9964 8.452747e-02 31.7193 182.8906)" class="st0" cx="115.4" cy="74.2" rx="4.5" ry="4.5"/>
	
		<ellipse transform="matrix(8.452016e-02 -0.9964 0.9964 8.452016e-02 66.795 228.2285)" class="st0" cx="157.6" cy="77.8" rx="4.5" ry="4.5"/>
</g>
</svg>
