<?xml version="1.0" encoding="utf-8"?>
<!-- Generator: Adobe Illustrator 20.1.0, SVG Export Plug-In . SVG Version: 6.00 Build 0)  -->
<svg version="1.1" id="Lager_1" xmlns="http://www.w3.org/2000/svg" xmlns:xlink="http://www.w3.org/1999/xlink" x="0px" y="0px"
	 viewBox="0 0 80.4 80.2" style="enable-background:new 0 0 80.4 80.2;" xml:space="preserve">
<style type="text/css">
	.st0{fill:#FFFFFF;}
</style>
<g>
	<g>
		<path class="st0" d="M16.9,55.5h-1.3c-0.8,0-1.2-0.4-1.2-1.1c0-0.7,0.4-1.1,1.2-1.1h5c0.8,0,1.2,0.4,1.2,1.1
			c0,0.7-0.4,1.1-1.2,1.1h-1.3v7c0,0.8-0.5,1.3-1.2,1.3c-0.7,0-1.2-0.4-1.2-1.3V55.5z"/>
		<path class="st0" d="M22.8,60.6c0,0.5,0.4,1.3,1.8,1.3c1.1,0,1.8-0.7,2.3-0.7c0.5,0,0.9,0.4,0.9,1c0,1.1-1.9,1.8-3.6,1.8
			c-2.5,0-4-1.8-4-4.1c0-2.2,1.6-4.1,4-4.1c2.2,0,3.7,1.9,3.7,3.9c0,0.8-0.4,1-1.1,1H22.8z M25.7,59c0-0.5-0.6-1.4-1.5-1.4
			c-0.9,0-1.5,0.9-1.5,1.4H25.7z"/>
		<path class="st0" d="M36.4,62.6c0,0.7-0.5,1.2-1.1,1.2c-0.6,0-0.9-0.4-1.1-0.7c-0.5,0.6-1.1,0.9-2,0.9c-2,0-3.5-1.8-3.5-4.1
			s1.5-4.1,3.5-4.1c0.9,0,1.4,0.2,2,0.9c0.2-0.3,0.5-0.7,1.1-0.7c0.7,0,1.1,0.5,1.1,1.2V62.6z M31,59.8c0,1,0.6,1.9,1.6,1.9
			c1,0,1.6-0.9,1.6-1.9s-0.6-1.9-1.6-1.9C31.6,57.9,31,58.8,31,59.8z"/>
		<path class="st0" d="M37.7,57c0-0.7,0.5-1.2,1.1-1.2c0.6,0,1,0.4,1.1,0.7c0.4-0.6,1.1-0.9,2-0.9c0.7,0,1.6,0.2,2.1,0.9
			c0.5-0.4,1.2-0.9,2.2-0.9c1.6,0,2.8,0.8,2.8,2.7v4.2c0,0.7-0.5,1.2-1.1,1.2c-0.7,0-1.1-0.5-1.1-1.2V59c0-0.7-0.4-1.4-1.1-1.4
			c-0.7,0-1.1,0.7-1.1,1.4v3.6c0,0.7-0.5,1.2-1.1,1.2c-0.7,0-1.1-0.5-1.1-1.2V59c0-0.7-0.4-1.4-1.1-1.4c-0.7,0-1.1,0.7-1.1,1.4v3.6
			c0,0.7-0.5,1.2-1.1,1.2c-0.7,0-1.1-0.5-1.1-1.2V57z"/>
		<path class="st0" d="M17.3,68.2c0.4-1.2,0.8-2.1,2-2.1c1.2,0,1.6,1,2,2.1l2.3,6.1c0.3,0.8,0.3,1.1,0.3,1.5c0,0.6-0.5,1-1.1,1
			c-0.8,0-1-0.5-1.2-1.2l-0.3-0.9h-3.9L17,75.6c-0.2,0.7-0.5,1.2-1.2,1.2c-0.7,0-1.1-0.4-1.1-1c0-0.3,0-0.6,0.4-1.5L17.3,68.2z
			 M19.3,68.7L19.3,68.7L18,72.5h2.5L19.3,68.7z"/>
		<path class="st0" d="M25.2,74.3c0.7,0,1.2,0.7,2.2,0.7c0.5,0,0.6-0.2,0.6-0.5c0-0.5-0.5-0.5-1.8-1c-1.2-0.5-1.8-0.9-1.8-2.1
			c0-1.3,1.1-2.6,2.9-2.6c0.9,0,2.6,0.4,2.6,1.6c0,0.6-0.4,1-0.9,1c-0.5,0-1.1-0.6-1.8-0.6c-0.3,0-0.6,0.1-0.6,0.5
			c0,0.9,3.6,0.7,3.6,3.2c0,1.6-1.4,2.6-2.9,2.6c-1.4,0-3-0.6-3-1.6C24.3,74.7,24.7,74.3,25.2,74.3z"/>
		<path class="st0" d="M31.7,74.3c0.7,0,1.2,0.7,2.2,0.7c0.5,0,0.6-0.2,0.6-0.5c0-0.5-0.5-0.5-1.8-1c-1.2-0.5-1.8-0.9-1.8-2.1
			c0-1.3,1.1-2.6,2.9-2.6c0.9,0,2.6,0.4,2.6,1.6c0,0.6-0.4,1-0.9,1c-0.5,0-1.1-0.6-1.8-0.6c-0.3,0-0.6,0.1-0.6,0.5
			c0,0.9,3.6,0.7,3.6,3.2c0,1.6-1.4,2.6-2.9,2.6c-1.4,0-3-0.6-3-1.6C30.8,74.7,31.2,74.3,31.7,74.3z"/>
		<path class="st0" d="M38.8,65.5c0.7,0,1.4,0.6,1.4,1.4c0,0.8-0.6,1.4-1.4,1.4c-0.7,0-1.4-0.6-1.4-1.4C37.4,66.1,38,65.5,38.8,65.5
			z M37.6,70c0-0.7,0.5-1.2,1.1-1.2c0.7,0,1.1,0.5,1.1,1.2v5.6c0,0.7-0.5,1.2-1.1,1.2c-0.7,0-1.1-0.5-1.1-1.2V70z"/>
		<path class="st0" d="M41.7,74.3c0.7,0,1.2,0.7,2.2,0.7c0.5,0,0.6-0.2,0.6-0.5c0-0.5-0.5-0.5-1.8-1c-1.2-0.5-1.8-0.9-1.8-2.1
			c0-1.3,1.1-2.6,2.9-2.6c0.9,0,2.6,0.4,2.6,1.6c0,0.6-0.4,1-0.9,1c-0.5,0-1.1-0.6-1.8-0.6c-0.3,0-0.6,0.1-0.6,0.5
			c0,0.9,3.6,0.7,3.6,3.2c0,1.6-1.4,2.6-2.9,2.6c-1.4,0-3-0.6-3-1.6C40.8,74.7,41.2,74.3,41.7,74.3z"/>
		<path class="st0" d="M48.3,71H48c-0.7,0-1.2-0.3-1.2-1.1c0-0.7,0.5-1,1.2-1h0.3v-1.5c0-0.7,0.5-1.2,1.1-1.2c0.7,0,1.1,0.5,1.1,1.2
			v1.5h0.6c0.7,0,1.2,0.3,1.2,1c0,0.7-0.5,1.1-1.2,1.1h-0.6v4.6c0,0.7-0.5,1.2-1.1,1.2c-0.7,0-1.1-0.5-1.1-1.2V71z"/>
		<path class="st0" d="M60.2,75.6c0,0.7-0.5,1.2-1.1,1.2c-0.6,0-0.9-0.4-1.1-0.7c-0.5,0.6-1.1,0.9-2,0.9c-2,0-3.5-1.8-3.5-4.1
			c0-2.3,1.5-4.1,3.5-4.1c0.9,0,1.4,0.2,2,0.9c0.2-0.3,0.5-0.7,1.1-0.7c0.7,0,1.1,0.5,1.1,1.2V75.6z M54.8,72.8c0,1,0.6,1.9,1.6,1.9
			c1,0,1.6-0.9,1.6-1.9c0-1.1-0.6-1.9-1.6-1.9C55.4,70.9,54.8,71.8,54.8,72.8z"/>
		<path class="st0" d="M61.5,70c0-0.7,0.5-1.2,1.1-1.2c0.6,0,1,0.4,1.1,0.7c0.4-0.6,1-0.9,2-0.9c1.6,0,2.8,0.8,2.8,2.7v4.2
			c0,0.7-0.5,1.2-1.1,1.2c-0.7,0-1.1-0.5-1.1-1.2V72c0-0.8-0.5-1.4-1.3-1.4s-1.3,0.6-1.3,1.4v3.6c0,0.7-0.5,1.2-1.1,1.2
			s-1.1-0.5-1.1-1.2V70z"/>
		<path class="st0" d="M70.5,71h-0.3C69.5,71,69,70.7,69,70c0-0.7,0.5-1,1.2-1h0.3v-1.5c0-0.7,0.5-1.2,1.1-1.2
			c0.7,0,1.1,0.5,1.1,1.2v1.5h0.6c0.7,0,1.2,0.3,1.2,1c0,0.7-0.5,1.1-1.2,1.1h-0.6v4.6c0,0.7-0.5,1.2-1.1,1.2
			c-0.7,0-1.1-0.5-1.1-1.2V71z"/>
	</g>
	<g>
		<path class="st0" d="M74,39.9c-0.1-2-0.5-4-0.9-5.9c-0.4-2.1-0.9-4.3-1.7-6.3c-0.2-0.6-0.5-1.1-0.7-1.7c-1.5-3.2-3.7-6-6.4-8.3
			c-4.2-3.5-9.7-4.9-15.1-5.5c-0.6-0.1-1.1-0.1-1.6-0.1V9.1c1.7,0.7,4.2,1,4.2,1c0.4,0,1.2,0.1,2,0.1c1.6,0,3.5-0.3,3.9-1.5
			c0.2-0.6,0.1-1.1-0.2-1.5c-1-1.4-4.4-1.4-4.8-1.4c-1.9,0-3.6,0.2-5.1,0.6v-2c0-0.6-0.5-1.1-1.1-1.1c-0.6,0-1.1,0.5-1.1,1.1V6
			c-1.7-0.7-4.5-1.1-4.5-1.1c-1.3-0.1-5.2-0.5-5.9,1.4c-0.2,0.6-0.1,1.1,0.2,1.5c1,1.3,4.2,1.4,4.8,1.4c0,0,0,0,0.1,0
			c2,0,3.8-0.3,5.4-0.7v3.5C31.3,12.1,22,20,22,34.9c0,0,0,1.4,0,3c-9.6,1-16.2,3.3-16.2,5.9c0,2.1,3.3,3.1,4.8,3.6
			c5.6,1.9,11.7,2.5,17.6,2.7c11,0.4,22.8-0.8,32.7-5.9c0.8-0.4,1.6-1,2.4-1.5c1.3-0.7,2.9-0.7,4.4-0.8c1.7-0.1,3.5-0.1,5.2-0.4
			c0.4-0.1,0.8-0.2,1-0.5c0.1-0.2,0.2-0.4,0.2-0.7C74,40.2,74,40,74,39.9z M33.6,35.1c-1.9-0.1-3.4-2.4-3.2-5.1
			c0.2-2.7,1.8-4.8,3.8-4.7c1.9,0.1,3.4,2.4,3.2,5.1S35.5,35.3,33.6,35.1z"/>
	</g>
</g>
</svg>
