<?xml version="1.0" encoding="utf-8"?>
<!-- Generator: Adobe Illustrator 20.1.0, SVG Export Plug-In . SVG Version: 6.00 Build 0)  -->
<svg version="1.1" id="Lager_1" xmlns="http://www.w3.org/2000/svg" xmlns:xlink="http://www.w3.org/1999/xlink" x="0px" y="0px"
	 viewBox="0 0 80.4 52.8" style="enable-background:new 0 0 80.4 52.8;" xml:space="preserve">
<style type="text/css">
	.st0{fill:#FFFFFF;}
</style>
<g>
	<g>
		<path class="st0" d="M74,39.9c-0.1-2-0.5-4-0.9-5.9c-0.4-2.1-0.9-4.3-1.7-6.3c-0.2-0.6-0.5-1.1-0.7-1.7c-1.5-3.2-3.7-6-6.4-8.3
			c-4.2-3.5-9.7-4.9-15.1-5.5c-0.6-0.1-1.1-0.1-1.6-0.1v-3c1.7,0.7,4.2,1,4.2,1c0.4,0,1.2,0.1,2,0.1c1.6,0,3.5-0.3,3.9-1.5
			c0.2-0.6,0.1-1.1-0.2-1.5c-1-1.4-4.4-1.4-4.8-1.4c-1.9,0-3.6,0.2-5.1,0.6v-2c0-0.6-0.5-1.1-1.1-1.1s-1.1,0.5-1.1,1.1V6
			c-1.7-0.7-4.5-1.1-4.5-1.1c-1.3-0.1-5.2-0.5-5.9,1.4c-0.2,0.6-0.1,1.1,0.2,1.5c1,1.3,4.2,1.4,4.8,1.4c0,0,0,0,0.1,0
			c2,0,3.8-0.3,5.4-0.7V12C31.3,12.1,22,20,22,34.9c0,0,0,1.4,0,3c-9.6,1-16.2,3.3-16.2,5.9c0,2.1,3.3,3.1,4.8,3.6
			c5.6,1.9,11.7,2.5,17.6,2.7c11,0.4,22.8-0.8,32.7-5.9c0.8-0.4,1.6-1,2.4-1.5c1.3-0.7,2.9-0.7,4.4-0.8c1.7-0.1,3.5-0.1,5.2-0.4
			c0.4-0.1,0.8-0.2,1-0.5c0.1-0.2,0.2-0.4,0.2-0.7C74,40.2,74,40,74,39.9z M33.6,35.1c-1.9-0.1-3.4-2.4-3.2-5.1
			c0.2-2.7,1.8-4.8,3.8-4.7c1.9,0.1,3.4,2.4,3.2,5.1S35.5,35.3,33.6,35.1z"/>
	</g>
</g>
</svg>
